<svg xmlns="http://www.w3.org/2000/svg" width="24" height="21.874" viewBox="0 0 24 21.874"><defs><style>.a{fill:#fff;}</style></defs><path class="a" d="M10,16.043a.75.75,0,0,1,.75-.75H25.24a2.5,2.5,0,0,1,4.769,0h3.24a.75.75,0,0,1,0,1.5h-3.24a2.5,2.5,0,0,1-4.769,0H10.75A.749.749,0,0,1,10,16.043Zm23.25,7.687H18.759a2.5,2.5,0,0,0-4.769,0H10.75a.75.75,0,1,0,0,1.5h3.24a2.5,2.5,0,0,0,4.769,0h14.49a.75.75,0,0,0,0-1.5Zm0,8.437h-3.24a2.5,2.5,0,0,0-4.769,0H10.75a.75.75,0,0,0,0,1.5H25.24a2.5,2.5,0,0,0,4.769,0h3.24a.75.75,0,0,0,0-1.5Z" transform="translate(-10 -13.543)"/></svg>